<svg width="52" height="52" viewBox="0 0 52 52" fill="none" xmlns="http://www.w3.org/2000/svg">
<path d="M0 26C0 11.6406 11.6406 0 26 0V0C40.3594 0 52 11.6406 52 26V26C52 40.3594 40.3594 52 26 52V52C11.6406 52 0 40.3594 0 26V26Z" fill="#E8E9EB"/>
<path d="M35.5982 14.2393C39.1338 14.2393 42 17.1054 42 20.6411V37.1726C42 37.4977 41.7365 37.7612 41.4115 37.7612H36.1867C35.8616 37.7612 35.5981 37.4977 35.5981 37.1726V21.846C35.5981 21.1806 35.0582 20.6411 34.3927 20.6411C32.5826 20.6411 31.2658 20.6411 29.1964 20.6411C29.1964 17.1055 32.0626 14.2393 35.5982 14.2393Z" fill="#023E0C"/>
<path d="M16.4019 20.6411H11.2049C10.5394 20.6411 10 21.1806 10 21.846V37.1726C10 37.4977 10.2635 37.7612 10.5885 37.7612H15.8133C16.1384 37.7612 16.4019 37.4977 16.4019 37.1726V20.6411Z" fill="#023E0C"/>
<path d="M22.8053 14.2393C26.3409 14.2393 29.2071 17.1054 29.2071 20.6411V37.1726C29.2071 37.4977 28.9436 37.7612 28.6186 37.7612H23.3938C23.0688 37.7612 22.8053 37.4977 22.8053 37.1726V21.846C22.8053 21.1806 22.2653 20.6411 21.5999 20.6411C19.7898 20.6411 18.4729 20.6411 16.4035 20.6411C16.4035 17.1055 19.2697 14.2393 22.8053 14.2393Z" fill="#023E0C"/>
</svg>
