<svg width="89" height="18" viewBox="0 0 89 18" fill="none" xmlns="http://www.w3.org/2000/svg">
<path d="M18.8142 0.356445C21.4127 0.356445 23.5192 2.46296 23.5192 5.06147V17.2114C23.5192 17.4503 23.3255 17.644 23.0866 17.644H19.2467C19.0078 17.644 18.8141 17.4503 18.8141 17.2114V5.94703C18.8141 5.45797 18.4173 5.06151 17.9282 5.06151C16.5978 5.06151 15.63 5.06151 14.1091 5.06151C14.1091 2.46299 16.2156 0.356445 18.8142 0.356445Z" fill="#183D14"/>
<path d="M4.70506 5.06152H0.88552C0.396461 5.06152 0 5.45798 0 5.94704V17.2114C0 17.4503 0.193658 17.644 0.432548 17.644H4.27251C4.5114 17.644 4.70506 17.4503 4.70506 17.2114V5.06152Z" fill="#183D14"/>
<path d="M9.41084 0.356445C12.0094 0.356445 14.1159 2.46296 14.1159 5.06147V17.2114C14.1159 17.4503 13.9222 17.644 13.6833 17.644H9.84335C9.60446 17.644 9.4108 17.4503 9.4108 17.2114V5.94703C9.4108 5.45797 9.01395 5.06151 8.52489 5.06151C7.19453 5.06151 6.22672 5.06151 4.70581 5.06151C4.7058 2.46299 6.81232 0.356445 9.41084 0.356445Z" fill="#183D14"/>
<path d="M35.2804 17.9992C33.6513 18.0199 32.0448 17.6159 30.6192 16.8271C29.243 16.0696 28.0892 14.9649 27.2726 13.6229C26.4581 12.2144 26.0293 10.6161 26.0293 8.98908C26.0293 7.36205 26.4581 5.76379 27.2726 4.3553C28.0928 3.02043 29.2461 1.92187 30.6192 1.16751C32.0463 0.382973 33.6521 -0.0189452 35.2804 0.000838549C36.9021 -0.0209237 38.5013 0.381239 39.9197 1.16751C41.287 1.92395 42.4344 3.02237 43.2499 4.3553C44.0676 5.76269 44.4983 7.36138 44.4983 8.98908C44.4983 10.6168 44.0676 12.2155 43.2499 13.6229C42.4381 14.963 41.2901 16.0675 39.9197 16.8271C38.5018 17.6153 36.9026 18.0193 35.2804 17.9992ZM35.2804 13.7324C36.0619 13.7592 36.8344 13.5586 37.5042 13.1552C38.1741 12.7517 38.7125 12.1627 39.0543 11.4593C39.432 10.6956 39.6199 9.85194 39.602 9.00004C39.6205 8.1516 39.4326 7.31135 39.0543 6.55167C38.7039 5.86989 38.1807 5.29197 37.5371 4.87562C36.8604 4.45624 36.0763 4.24307 35.2804 4.26216C34.4795 4.24396 33.6904 4.45694 33.0074 4.87562C32.353 5.28416 31.8227 5.86371 31.4737 6.55167C31.0954 7.31135 30.9074 8.1516 30.926 9.00004C30.9083 9.85192 31.0962 10.6955 31.4737 11.4593C31.8164 12.1516 32.3482 12.7327 33.0074 13.1354C33.6916 13.5518 34.4795 13.7663 35.2804 13.7543V13.7324Z" fill="#183D14"/>
<path d="M71.4126 0.361819H75.0985C75.3374 0.361819 75.531 0.555478 75.531 0.794367V3.55556C75.531 3.79445 75.3374 3.98811 75.0985 3.98811H71.4126C70.5782 3.98811 69.9019 4.66445 69.9019 5.49876V17.2473C69.9019 17.4663 69.7244 17.6438 69.5055 17.6438H65.914C65.6751 17.6438 65.4814 17.4501 65.4814 17.2112V6.28739C65.4814 3.01262 68.1378 0.358756 71.4126 0.361819Z" fill="#183D14"/>
<path d="M81.435 0.359531C82.7779 0.32372 84.111 0.600069 85.3289 1.16715C86.3694 1.66175 87.2395 2.45492 87.828 3.44541C88.4328 4.52058 88.7345 5.73995 88.7006 6.97309V10.87H88.7008L88.7023 14.8833C88.7029 16.4077 87.4673 17.6438 85.9429 17.6438H80.5859V17.6425C80.2657 17.6427 79.8444 17.6429 79.5716 17.6421C78.511 17.6643 77.4576 17.4624 76.4804 17.0497C75.646 16.7031 74.9365 16.1111 74.446 15.3524C73.9555 14.5935 73.707 13.7034 73.7336 12.8002C73.7204 11.9257 73.9397 11.0633 74.3691 10.3013C74.8385 9.52131 75.5103 8.883 76.3133 8.4541C77.3346 7.89573 78.4502 7.53051 79.604 7.3769L84.5828 6.55677C84.5502 6.33561 84.4943 6.11778 84.414 5.90784C84.262 5.51016 84.0289 5.14842 83.7295 4.84567C83.0319 4.23728 82.1217 3.92944 81.198 3.98933H78.3422C78.1033 3.98933 77.9097 3.79566 77.9097 3.55677V0.791996C77.9097 0.553123 78.1033 0.359531 78.3422 0.359531H81.435ZM80.3795 10.4144C79.7199 10.4951 79.0964 10.7601 78.5807 11.1791C78.3827 11.3619 78.2269 11.5859 78.1245 11.8352C78.0222 12.0846 77.9758 12.3534 77.9884 12.6226C77.9769 12.8897 78.032 13.1556 78.1485 13.3962C78.2651 13.6368 78.4396 13.8448 78.6562 14.0014C79.1348 14.3556 79.7263 14.514 80.3149 14.514L84.2817 14.5147C84.4646 14.5147 84.6129 14.3664 84.6129 14.1835V10.9766H84.6125V9.66524L80.3795 10.4144Z" fill="#183D14"/>
<path d="M62.5851 17.2115C62.5851 17.4504 62.3914 17.644 62.1525 17.644H58.3125C58.0736 17.644 57.88 17.4504 57.88 17.2115V5.5107C57.88 4.7144 57.2344 4.06887 56.4381 4.06887H53.1738C52.3775 4.06887 51.7319 4.7144 51.7319 5.5107V17.2115C51.7319 17.4504 51.5383 17.644 51.2994 17.644H47.4594C47.2205 17.644 47.0269 17.4504 47.0269 17.2115V4.68193C47.0269 2.29303 48.9634 0.356445 51.3523 0.356445H58.2596C60.6485 0.356445 62.5851 2.29303 62.5851 4.68193V17.2115Z" fill="#183D14"/>
</svg>
