<svg width="35" height="8" viewBox="0 0 35 8" fill="none" xmlns="http://www.w3.org/2000/svg">
<path d="M7.42362 0.140625C8.44893 0.140625 9.28011 0.971805 9.28011 1.99712V6.7912C9.28011 6.88546 9.2037 6.96187 9.10944 6.96187H7.59428C7.50002 6.96187 7.42361 6.88546 7.42361 6.7912V2.34654C7.42361 2.15357 7.26702 1.99713 7.07405 1.99713C6.54912 1.99713 6.16725 1.99713 5.56714 1.99713C5.56713 0.971819 6.39831 0.140625 7.42362 0.140625Z" fill="#183D14"/>
<path d="M1.8565 1.99707H0.349404C0.156433 1.99707 0 2.1535 0 2.34648V6.79113C0 6.88539 0.0764127 6.9618 0.170672 6.9618H1.68583C1.78009 6.9618 1.8565 6.88539 1.8565 6.79113V1.99707Z" fill="#183D14"/>
<path d="M3.71342 0.140625C4.73873 0.140625 5.56991 0.971805 5.56991 1.99712V6.7912C5.56991 6.88546 5.49349 6.96187 5.39923 6.96187H3.88408C3.78982 6.96187 3.7134 6.88546 3.7134 6.7912V2.34654C3.7134 2.15357 3.55682 1.99713 3.36385 1.99713C2.83892 1.99713 2.45704 1.99713 1.85693 1.99713C1.85693 0.971819 2.68811 0.140625 3.71342 0.140625Z" fill="#183D14"/>
<path d="M13.9208 7.10208C13.278 7.11022 12.6441 6.95082 12.0816 6.63958C11.5386 6.3407 11.0833 5.9048 10.7611 5.37527C10.4397 4.81952 10.2705 4.18887 10.2705 3.54688C10.2705 2.90489 10.4397 2.27426 10.7611 1.7185C11.0847 1.19179 11.5398 0.758323 12.0816 0.460671C12.6447 0.151112 13.2783 -0.00747531 13.9208 0.000330872C14.5606 -0.008256 15.1916 0.150428 15.7513 0.460671C16.2908 0.759146 16.7436 1.19256 17.0653 1.7185C17.388 2.27382 17.5579 2.90463 17.5579 3.54688C17.5579 4.18913 17.388 4.81995 17.0653 5.37527C16.745 5.90403 16.292 6.33987 15.7513 6.63958C15.1918 6.95057 14.5608 7.11001 13.9208 7.10208ZM13.9208 5.4185C14.2291 5.42905 14.5339 5.34993 14.7982 5.19073C15.0625 5.03154 15.275 4.7991 15.4098 4.52159C15.5589 4.22022 15.633 3.88734 15.626 3.55121C15.6333 3.21643 15.5591 2.88489 15.4098 2.58514C15.2716 2.31612 15.0651 2.08809 14.8112 1.9238C14.5442 1.75833 14.2348 1.67422 13.9208 1.68175C13.6048 1.67457 13.2934 1.75861 13.0239 1.9238C12.7657 2.085 12.5564 2.31368 12.4187 2.58514C12.2695 2.88489 12.1953 3.21643 12.2026 3.55121C12.1956 3.88734 12.2698 4.22019 12.4187 4.52159C12.554 4.79474 12.7638 5.02402 13.0239 5.18292C13.2939 5.34721 13.6048 5.43187 13.9208 5.42714V5.4185Z" fill="#183D14"/>
<path d="M28.1777 0.142579H29.632C29.7263 0.142579 29.8027 0.218992 29.8027 0.313253V1.40276C29.8027 1.49702 29.7263 1.57343 29.632 1.57343H28.1777C27.8485 1.57343 27.5816 1.8403 27.5816 2.1695V6.80521C27.5816 6.8916 27.5116 6.96164 27.4252 6.96164H26.0081C25.9138 6.96164 25.8374 6.88523 25.8374 6.79097V2.48067C25.8374 1.18852 26.8855 0.141371 28.1777 0.142579Z" fill="#183D14"/>
<path d="M32.1323 0.141842C32.6622 0.127712 33.1882 0.236753 33.6687 0.460509C34.0793 0.655666 34.4226 0.968635 34.6548 1.35946C34.8935 1.7837 35.0125 2.26483 34.9991 2.7514V4.28904H34.9992L34.9998 5.87258C35 6.47407 34.5125 6.9618 33.911 6.9618H31.7973V6.96129C31.6709 6.96139 31.5047 6.96147 31.397 6.96114C30.9786 6.9699 30.5629 6.89025 30.1773 6.72741C29.8481 6.59064 29.5682 6.35705 29.3746 6.05766C29.1811 5.75824 29.083 5.40702 29.0935 5.05065C29.0883 4.70558 29.1749 4.36529 29.3443 4.06463C29.5295 3.75687 29.7946 3.505 30.1114 3.33577C30.5144 3.11545 30.9546 2.97134 31.4098 2.91073L33.3743 2.58713C33.3615 2.49986 33.3394 2.41391 33.3077 2.33108C33.2477 2.17416 33.1558 2.03143 33.0377 1.91197C32.7624 1.67191 32.4033 1.55044 32.0388 1.57408H30.912C30.8177 1.57408 30.7413 1.49766 30.7413 1.4034V0.312483C30.7413 0.218229 30.8177 0.141842 30.912 0.141842H32.1323ZM31.7158 4.10927C31.4556 4.14111 31.2096 4.24568 31.0061 4.41099C30.9279 4.48312 30.8665 4.5715 30.8261 4.66988C30.7857 4.76827 30.7674 4.87433 30.7723 4.98056C30.7678 5.08596 30.7896 5.19087 30.8355 5.28582C30.8815 5.38075 30.9504 5.46281 31.0359 5.5246C31.2247 5.66436 31.4581 5.72688 31.6903 5.72688L33.2556 5.72713C33.3277 5.72713 33.3862 5.66862 33.3862 5.59646V4.33111H33.3861V3.81366L31.7158 4.10927Z" fill="#183D14"/>
<path d="M24.6945 6.79122C24.6945 6.88548 24.6181 6.9619 24.5239 6.9619H23.0087C22.9144 6.9619 22.838 6.88548 22.838 6.79122V2.17437C22.838 1.86017 22.5833 1.60546 22.2691 1.60546H20.9811C20.6669 1.60546 20.4122 1.86017 20.4122 2.17437V6.79122C20.4122 6.88548 20.3358 6.9619 20.2415 6.9619H18.7263C18.6321 6.9619 18.5557 6.88548 18.5557 6.79122V1.84736C18.5557 0.904757 19.3198 0.140625 20.2624 0.140625H22.9878C23.9304 0.140625 24.6945 0.904756 24.6945 1.84736V6.79122Z" fill="#183D14"/>
</svg>
