<svg width="50" height="11" viewBox="0 0 50 11" fill="none" xmlns="http://www.w3.org/2000/svg">
<path d="M10.6052 0.200684C12.07 0.200684 13.2574 1.38808 13.2574 2.85282V9.7015C13.2574 9.83616 13.1482 9.94532 13.0135 9.94532H10.849C10.7144 9.94532 10.6052 9.83616 10.6052 9.7015V3.35199C10.6052 3.07632 10.3815 2.85284 10.1059 2.85284C9.35596 2.85284 8.81043 2.85284 7.95313 2.85284C7.95312 1.3881 9.14052 0.200684 10.6052 0.200684Z" fill="#183D14"/>
<path d="M2.65214 2.85303H0.499148C0.223476 2.85303 0 3.07651 0 3.35218V9.70168C0 9.83634 0.109161 9.9455 0.243818 9.9455H2.40832C2.54298 9.9455 2.65214 9.83634 2.65214 9.70168V2.85303Z" fill="#183D14"/>
<path d="M5.30471 0.200684C6.76943 0.200684 7.95683 1.38808 7.95683 2.85282V9.7015C7.95683 9.83616 7.84767 9.94532 7.71301 9.94532H5.5485C5.41385 9.94532 5.30468 9.83616 5.30468 9.7015V3.35199C5.30468 3.07632 5.08099 2.85284 4.80532 2.85284C4.05542 2.85284 3.50989 2.85284 2.65259 2.85284C2.65258 1.3881 3.83998 0.200684 5.30471 0.200684Z" fill="#183D14"/>
<path d="M19.8868 10.1458C18.9685 10.1575 18.0629 9.92974 17.2594 9.48511C16.4836 9.05814 15.8332 8.43543 15.373 7.67896C14.9139 6.88502 14.6721 5.98409 14.6721 5.06697C14.6721 4.14985 14.9139 3.24894 15.373 2.455C15.8353 1.70256 16.4854 1.08332 17.2594 0.658101C18.0638 0.215874 18.9689 -0.010679 19.8868 0.000472674C20.8009 -0.0117943 21.7023 0.214897 22.5018 0.658101C23.2725 1.08449 23.9193 1.70365 24.379 2.455C24.8399 3.24832 25.0827 4.14947 25.0827 5.06697C25.0827 5.98447 24.8399 6.88564 24.379 7.67896C23.9214 8.43433 23.2743 9.05696 22.5018 9.48511C21.7026 9.92939 20.8011 10.1572 19.8868 10.1458ZM19.8868 7.74071C20.3273 7.75578 20.7627 7.64275 21.1403 7.41533C21.5179 7.18791 21.8214 6.85586 22.014 6.45941C22.2269 6.02889 22.3329 5.55335 22.3228 5.07315C22.3332 4.5949 22.2272 4.12127 22.014 3.69305C21.8165 3.30875 21.5216 2.98298 21.1588 2.74829C20.7774 2.51189 20.3354 2.39174 19.8868 2.4025C19.4353 2.39224 18.9905 2.51229 18.6055 2.74829C18.2367 2.97858 17.9377 3.30526 17.741 3.69305C17.5278 4.12127 17.4218 4.5949 17.4323 5.07315C17.4223 5.55334 17.5282 6.02885 17.741 6.45941C17.9342 6.84963 18.2339 7.17717 18.6055 7.40417C18.9912 7.63887 19.4353 7.75981 19.8868 7.75306V7.74071Z" fill="#183D14"/>
<path d="M40.2536 0.203615H42.3313C42.466 0.203615 42.5751 0.312776 42.5751 0.447434V2.00387C42.5751 2.13853 42.466 2.24769 42.3313 2.24769H40.2536C39.7834 2.24769 39.4021 2.62893 39.4021 3.09921V9.72166C39.4021 9.84508 39.3021 9.94513 39.1786 9.94513H37.1542C37.0196 9.94513 36.9104 9.83597 36.9104 9.70131V3.54374C36.9104 1.69782 38.4077 0.201888 40.2536 0.203615Z" fill="#183D14"/>
<path d="M45.9032 0.202423C46.6602 0.182237 47.4116 0.33801 48.0981 0.657661C48.6846 0.936457 49.1751 1.38355 49.5068 1.94187C49.8477 2.54793 50.0178 3.23526 49.9987 3.93036V6.127H49.9988L49.9997 8.38919C50 9.24847 49.3035 9.94522 48.4442 9.94522H45.4246V9.94449C45.2441 9.94463 45.0067 9.94475 44.8528 9.94427C44.255 9.95679 43.6613 9.84301 43.1104 9.61037C42.6401 9.41499 42.2402 9.08129 41.9637 8.65359C41.6872 8.22585 41.5471 7.7241 41.5621 7.215C41.5547 6.72204 41.6783 6.23592 41.9203 5.8064C42.1849 5.36674 42.5636 5.00694 43.0162 4.76517C43.5919 4.45044 44.2208 4.24456 44.8711 4.15798L47.6775 3.69569C47.6592 3.57102 47.6277 3.44823 47.5824 3.3299C47.4967 3.10573 47.3653 2.90183 47.1966 2.73117C46.8033 2.38823 46.2903 2.21471 45.7696 2.24847H44.1599C44.0252 2.24847 43.9161 2.1393 43.9161 2.00465V0.446195C43.9161 0.311547 44.0252 0.202423 44.1599 0.202423H45.9032ZM45.3082 5.87017C44.9365 5.91566 44.585 6.06504 44.2943 6.30121C44.1827 6.40424 44.0949 6.53051 44.0372 6.67105C43.9795 6.8116 43.9534 6.96311 43.9604 7.11487C43.954 7.26544 43.985 7.41532 44.0507 7.55096C44.1164 7.68657 44.2148 7.8038 44.3369 7.89207C44.6067 8.09173 44.94 8.18104 45.2718 8.18104L47.5079 8.18141C47.6109 8.18141 47.6945 8.09781 47.6945 7.99473V6.18708H47.6943V5.44787L45.3082 5.87017Z" fill="#183D14"/>
<path d="M35.2779 9.70154C35.2779 9.83619 35.1687 9.94535 35.0341 9.94535H32.8695C32.7349 9.94535 32.6257 9.83619 32.6257 9.70154V3.10604C32.6257 2.65718 32.2618 2.29331 31.813 2.29331H29.9729C29.5241 2.29331 29.1602 2.65718 29.1602 3.10604V9.70154C29.1602 9.83619 29.051 9.94535 28.9164 9.94535H26.7519C26.6172 9.94535 26.5081 9.83619 26.5081 9.70154V2.63888C26.5081 1.2923 27.5997 0.200684 28.9462 0.200684H32.8397C34.1863 0.200684 35.2779 1.2923 35.2779 2.63888V9.70154Z" fill="#183D14"/>
</svg>
